<?xml version="1.0" encoding="utf-8"?>
<svg version="1.1" id="img01" xmlns="http://www.w3.org/2000/svg" xmlns:xlink="http://www.w3.org/1999/xlink" x="0px" y="0px"
	 width="600px" height="600px" viewBox="0 0 600 600" enable-background="new 0 0 600 600" xml:space="preserve">
<path fill-rule="evenodd" clip-rule="evenodd" d="M398.446,316.481c-3.574-17.386-7.231-34.762-10.803-52.176
	c-2.338-11.235-3.642-34.956-1.642-47.245c0-4.256,0-8.551,0-12.798c0-9.742,0-19.533,0-29.295c0-6.383-0.086-12.768-0.178-19.191
	c-1.245-7.809,0.545-16.043-1.159-22.886c-6.989-27.874-30.591-38.412-41.749-61.591c1.021-6.769,5.619-11.537,7.336-18.59
	c4.92-19.997-2.886-42.209-17.69-49.072c-5.188-2.421-10.934-1.605-17.059-2.748c-2.245,0.2-4.459,0.415-6.704,0.591
	c-4.749,1.244-21.343,9.21-23.168,12.5c-1.967,3.573,2.017,5.12,1.524,8.258c-1.635,5.687-3.265,11.363-4.886,17.069
	c-0.322,3.143,2.904,3.299,2.138,6.706c-1.011,4.519-7.273,7.614-6.106,12.519c0.899,2.206,2.597,2.831,5.198,3.349
	c1.167,2.65-1.01,4.197-0.62,6.691c0.396,2.489,1.86,5.989,2.436,8.844c0.508,2.416-1.148,4.788-1.22,7.921
	c3.515,3.934,14.286,4.593,19.826,6.096c2.919,6.306-7.492,20.626-10.05,24.995c-1.411,2.401-2.216,4.87-2.699,7.391
	c-15.434,20.886-38.192,49.849-44.284,47.781c-5.975-2.028-32.664-37.985-36.161-47.753c-0.722-2.015-0.421-5.296-0.046-8.694
	l11.278-9.211c1.396-1.098,2.042-3.902,2.042-6.309V53.869c0-2.407-0.609-4.152-2.005-3.912l-13.502,2.389
	c-1.912,0.329-3.494,3.019-3.494,5.964V81.42c-5,1.846-13.841,15.959-14.872,18.01c-7.5,14.909,2.646,29.542,2.352,36.301
	c-0.714,16.422,31.266,54.883,36.98,67.2c0.588,1.268,3.579,11.884,13.579,11.884c9.821,0,16.788-8.395,20.54-11.452
	c3.292-2.683,7.383-5.741,11.868-8.99c-0.27,2.382-0.611,4.763-1.273,7.136c-1.224,7.839-0.283,15.639-1.502,23.476
	c-1.787,8.864,0.043,17.044-2.436,24.092c-4.07,7.917,4.187,60.366,4.417,60.073c3.875,3.104,5.13,31.569,7.394,38.714l2.656,27.431
	c0-0.176,3.426,31.754,7.316,47.87c1.83,6.325,3.661,12.632,5.486,18.947c0.313,7.595,0.625,15.209,0.933,22.823
	c0.39,6.843,0.453,13.627,0.859,20.45c1.02,6.413,1.703,12.798,2.703,19.231c0,4.441,0,8.921,0,13.392
	c0,7.653,0.952,14.906,0.05,22.286c-0.752,6.12,1.117,13.9,5.344,15.228c-0.039,4.373-2.142,3.895-2.952,6.677
	c0.102,2.353,0.239,4.705,0.341,7.038c-0.888,2.333-3.804,4.07-5.757,5.486c-3.641,2.616-6.539,6.081-11.576,7.351
	c-8.063,1.942-14.846-0.645-22.26,2.108c-0.811,1.357-1.252,2.509-1.218,4.871c7.854,8.249,28.656,14.067,43.596,9.147
	c7.429-2.753,14.849-5.496,22.263-8.23c-0.195,2.431-0.409,4.871-0.604,7.331c6.227,0.967,19.679,2.03,23.174-2.46
	c1.322-3.661,2.646-7.292,3.963-10.981c1.02-2.362,2.826-3.797,3.353-6.979c5.594-0.118,11.299-0.225,16.898-0.333
	c7.672-10.455,7.387-18.673,4.387-32.622c0-2.431,0-4.852,0-7.302c-1-3.026-6.798-6.208-4.075-13.12
	c1.123-2.89,4.152-4.793,5.123-8.532c-0.117-8.034-0.25-16.048-0.348-24.092c3.822-20.275,0.498-45.528-1.84-65.559
	c-0.517-7.614-1.018-15.257-1.545-22.87c-1.63-6.492-3.249-13.003-4.87-19.533c-2.338-11.46,1.17-25.917,3.361-34.742
	c0.196-2.158,0.395-4.276,0.595-6.413c1.825-2.431,8.512-1.269,11.894-2.109c3.836-1.015,6.838-3.855,11.275-4.9
	C402.853,331.24,399.529,321.908,398.446,316.481z"/>
</svg>
